<svg width="5237" height="1062" viewBox="0 0 5237 1062" fill="none" xmlns="http://www.w3.org/2000/svg">
<path fill-rule="evenodd" clip-rule="evenodd" d="M776 0L0 134.5V836L120 870.948V592.5C120 417.5 241.5 246 337 228C435.5 239.5 572 417 572 639C572 729.82 572.167 797.014 572.297 848.935C572.482 923.308 572.589 966.343 572.015 1002.59L776 1062V0Z" fill="#AA2930"/>
<path fill-rule="evenodd" clip-rule="evenodd" d="M776 0L1552 134.5V836L1432 870.948V592.5C1432 417.5 1310.5 246 1215 228C1116.5 239.5 980 417 980 639C980 729.82 979.833 797.014 979.703 848.935C979.518 923.308 979.411 966.343 979.985 1002.59L776 1062V0Z" fill="#6A070C"/>
<path d="M2189.94 541.4C2156.74 541.4 2125.94 536.2 2097.54 525.8C2069.54 515 2045.14 499.8 2024.34 480.2C2003.94 460.6 1987.94 437.6 1976.34 411.2C1964.74 384.4 1958.94 355 1958.94 323C1958.94 291 1964.74 261.8 1976.34 235.4C1987.94 208.6 2003.94 185.4 2024.34 165.8C2045.14 146.2 2069.54 131.2 2097.54 120.8C2125.94 110 2156.74 104.6 2189.94 104.6C2228.74 104.6 2263.34 111.4 2293.74 125C2324.54 138.6 2350.14 158.2 2370.54 183.8L2294.94 252.2C2281.34 236.2 2266.34 224 2249.94 215.6C2233.94 207.2 2215.94 203 2195.94 203C2178.74 203 2162.94 205.8 2148.54 211.4C2134.14 217 2121.74 225.2 2111.34 236C2101.34 246.4 2093.34 259 2087.34 273.8C2081.74 288.6 2078.94 305 2078.94 323C2078.94 341 2081.74 357.4 2087.34 372.2C2093.34 387 2101.34 399.8 2111.34 410.6C2121.74 421 2134.14 429 2148.54 434.6C2162.94 440.2 2178.74 443 2195.94 443C2215.94 443 2233.94 438.8 2249.94 430.4C2266.34 422 2281.34 409.8 2294.94 393.8L2370.54 462.2C2350.14 487.4 2324.54 507 2293.74 521C2263.34 534.6 2228.74 541.4 2189.94 541.4ZM2423.5 533V113H2542.3V533H2423.5ZM2626.82 533V113H2724.62L2898.62 398.6H2847.02L3016.22 113H3114.02L3115.22 533H3006.02L3004.82 279.2H3023.42L2896.82 491.6H2844.02L2713.82 279.2H2736.62V533H2626.82ZM3308.49 275.6H3503.49V364.4H3308.49V275.6ZM3316.89 441.2H3536.49V533H3199.29V113H3528.69V204.8H3316.89V441.2ZM3602.41 533V113H3700.21L3931.81 392.6H3885.61V113H4002.01V533H3904.21L3672.61 253.4H3718.81V533H3602.41ZM4175.21 533V207.2H4046.21V113H4422.41V207.2H4294.01V533H4175.21ZM4395.17 533L4580.57 113H4697.57L4883.57 533H4759.97L4614.77 171.2H4661.57L4516.37 533H4395.17ZM4496.57 451.4L4527.17 363.8H4732.37L4762.97 451.4H4496.57ZM4917.25 533V113H5036.05V438.8H5236.45V533H4917.25Z" fill="white"/>
<path d="M1991.26 902V650H2013.22L2128.42 846.56H2116.9L2231.02 650H2252.98V902H2227.42V689.96H2233.54L2128.42 869.96H2115.82L2009.98 689.96H2016.82V902H1991.26ZM2355.97 902L2471.17 650H2497.45L2612.65 902H2584.57L2478.73 665.48H2489.53L2383.69 902H2355.97ZM2401.33 834.68L2409.25 813.08H2555.77L2563.69 834.68H2401.33ZM2785.02 904.16C2766.3 904.16 2748.3 901.16 2731.02 895.16C2713.98 888.92 2700.78 881 2691.42 871.4L2701.86 850.88C2710.74 859.52 2722.62 866.84 2737.5 872.84C2752.62 878.6 2768.46 881.48 2785.02 881.48C2800.86 881.48 2813.7 879.56 2823.54 875.72C2833.62 871.64 2840.94 866.24 2845.5 859.52C2850.3 852.8 2852.7 845.36 2852.7 837.2C2852.7 827.36 2849.82 819.44 2844.06 813.44C2838.54 807.44 2831.22 802.76 2822.1 799.4C2812.98 795.8 2802.9 792.68 2791.86 790.04C2780.82 787.4 2769.78 784.64 2758.74 781.76C2747.7 778.64 2737.5 774.56 2728.14 769.52C2719.02 764.48 2711.58 757.88 2705.82 749.72C2700.3 741.32 2697.54 730.4 2697.54 716.96C2697.54 704.48 2700.78 693.08 2707.26 682.76C2713.98 672.2 2724.18 663.8 2737.86 657.56C2751.54 651.08 2769.06 647.84 2790.42 647.84C2804.58 647.84 2818.62 649.88 2832.54 653.96C2846.46 657.8 2858.46 663.2 2868.54 670.16L2859.54 691.4C2848.74 684.2 2837.22 678.92 2824.98 675.56C2812.98 672.2 2801.34 670.52 2790.06 670.52C2774.94 670.52 2762.46 672.56 2752.62 676.64C2742.78 680.72 2735.46 686.24 2730.66 693.2C2726.1 699.92 2723.82 707.6 2723.82 716.24C2723.82 726.08 2726.58 734 2732.1 740C2737.86 746 2745.3 750.68 2754.42 754.04C2763.78 757.4 2773.98 760.4 2785.02 763.04C2796.06 765.68 2806.98 768.56 2817.78 771.68C2828.82 774.8 2838.9 778.88 2848.02 783.92C2857.38 788.72 2864.82 795.2 2870.34 803.36C2876.1 811.52 2878.98 822.2 2878.98 835.4C2878.98 847.64 2875.62 859.04 2868.9 869.6C2862.18 879.92 2851.86 888.32 2837.94 894.8C2824.26 901.04 2806.62 904.16 2785.02 904.16ZM3108.38 904.16C3089.42 904.16 3071.78 901.04 3055.46 894.8C3039.38 888.32 3025.34 879.32 3013.34 867.8C3001.58 856.04 2992.34 842.48 2985.62 827.12C2979.14 811.52 2975.9 794.48 2975.9 776C2975.9 757.52 2979.14 740.6 2985.62 725.24C2992.34 709.64 3001.58 696.08 3013.34 684.56C3025.34 672.8 3039.38 663.8 3055.46 657.56C3071.54 651.08 3089.18 647.84 3108.38 647.84C3127.34 647.84 3144.86 651.08 3160.94 657.56C3177.02 663.8 3190.94 672.68 3202.7 684.2C3214.7 695.72 3223.94 709.28 3230.42 724.88C3237.14 740.48 3240.5 757.52 3240.5 776C3240.5 794.48 3237.14 811.52 3230.42 827.12C3223.94 842.72 3214.7 856.28 3202.7 867.8C3190.94 879.32 3177.02 888.32 3160.94 894.8C3144.86 901.04 3127.34 904.16 3108.38 904.16ZM3108.38 880.4C3123.5 880.4 3137.42 877.88 3150.14 872.84C3163.1 867.56 3174.26 860.24 3183.62 850.88C3193.22 841.28 3200.66 830.24 3205.94 817.76C3211.22 805.04 3213.86 791.12 3213.86 776C3213.86 760.88 3211.22 747.08 3205.94 734.6C3200.66 721.88 3193.22 710.84 3183.62 701.48C3174.26 691.88 3163.1 684.56 3150.14 679.52C3137.42 674.24 3123.5 671.6 3108.38 671.6C3093.26 671.6 3079.22 674.24 3066.26 679.52C3053.3 684.56 3042.02 691.88 3032.42 701.48C3023.06 710.84 3015.62 721.88 3010.1 734.6C3004.82 747.08 3002.18 760.88 3002.18 776C3002.18 790.88 3004.82 804.68 3010.1 817.4C3015.62 830.12 3023.06 841.28 3032.42 850.88C3042.02 860.24 3053.3 867.56 3066.26 872.84C3079.22 877.88 3093.26 880.4 3108.38 880.4ZM3361.41 902V650H3383.37L3557.25 868.88H3545.73V650H3572.01V902H3550.05L3376.53 683.12H3388.05V902H3361.41ZM3715.46 902V650H3809.78C3831.14 650 3849.5 653.48 3864.86 660.44C3880.22 667.16 3891.98 677 3900.14 689.96C3908.54 702.68 3912.74 718.16 3912.74 736.4C3912.74 754.16 3908.54 769.52 3900.14 782.48C3891.98 795.2 3880.22 805.04 3864.86 812C3849.5 818.72 3831.14 822.08 3809.78 822.08H3730.22L3742.1 809.84V902H3715.46ZM3887.54 902L3822.74 810.56H3851.54L3916.7 902H3887.54ZM3742.1 812L3730.22 799.4H3809.06C3834.26 799.4 3853.34 793.88 3866.3 782.84C3879.5 771.8 3886.1 756.32 3886.1 736.4C3886.1 716.24 3879.5 700.64 3866.3 689.6C3853.34 678.56 3834.26 673.04 3809.06 673.04H3730.22L3742.1 660.44V812ZM4093.42 902V808.4L4099.54 824.96L3992.62 650H4021.06L4115.02 803.72H4099.9L4193.86 650H4220.5L4113.58 824.96L4119.7 808.4V902H4093.42Z" fill="white"/>
</svg>
