<svg width="326" height="242" viewBox="0 0 326 242" fill="none" xmlns="http://www.w3.org/2000/svg">
<rect x="5" y="57" width="256" height="180" fill="#D6D6D6"/>
<path d="M65 5H321L261 57H5L65 5Z" fill="#FDFDFD"/>
<path d="M261 57L321 5V185L261 237V57Z" fill="#ADACAC"/>
<line x1="256.5" y1="237" x2="256.5" y2="57" stroke="#FDFDFD" stroke-width="9"/>
<path d="M6.38028 55.8036L63.8724 5.97724C64.5997 5.34696 65.5298 5 66.4921 5H317C319.209 5 321 6.79086 321 9V183.173C321 184.333 320.496 185.436 319.62 186.196L262.128 236.023C261.4 236.653 260.47 237 259.508 237H9C6.79086 237 5 235.209 5 233V58.8264C5 57.6663 5.50363 56.5634 6.38028 55.8036Z" stroke="#333333" stroke-width="10"/>
<path fill-rule="evenodd" clip-rule="evenodd" d="M228.598 27.2843L217.284 38.5981L244.861 66.1752L216.577 94.4595L227.891 105.773L256.175 77.4889L283.752 105.066L295.066 93.7524L267.489 66.1752L295.773 37.8909L284.459 26.5772L256.175 54.8615L228.598 27.2843Z" fill="#DE3333"/>
</svg>
