<svg width="326" height="242" viewBox="0 0 326 242" fill="none" xmlns="http://www.w3.org/2000/svg">
<path d="M145 47H241L181 99H85L145 47Z" fill="#FDFDFD"/>
<path d="M65 89H161L101 141H5L65 89Z" fill="#FDFDFD"/>
<path d="M5 141H85V99H165V57H261V237H5V141Z" fill="#D6D6D6"/>
<path d="M225 5H321L261 57H165L225 5Z" fill="#FDFDFD"/>
<path d="M261 57L321 5V185L261 237V57Z" fill="#ADACAC"/>
<line x1="256.5" y1="237" x2="256.5" y2="57" stroke="#FDFDFD" stroke-width="9"/>
<path d="M218.435 43.5772L232.577 29.435L299.045 95.9031C301.388 98.2462 301.388 102.045 299.045 104.388L293.388 110.045C291.045 112.388 287.246 112.388 284.903 110.045L218.435 43.5772Z" fill="#E09266"/>
<rect x="207.828" y="59.8406" width="58" height="28" rx="4" transform="rotate(-45 207.828 59.8406)" fill="#828D9D"/>
<path d="M321 183.173V9C321 6.79086 319.209 5 317 5H226.492C225.53 5 224.6 5.34695 223.872 5.97721L177.665 46.0228C176.938 46.653 176.008 47 175.045 47H146.492C145.53 47 144.6 47.347 143.872 47.9773L97.6678 88.0227C96.9406 88.653 96.0105 89 95.0481 89H66.4921C65.5298 89 64.5997 89.347 63.8724 89.9772L6.38028 139.804C5.50363 140.564 5 141.666 5 142.827V233C5 235.209 6.79086 237 9 237H259.508C260.47 237 261.4 236.653 262.128 236.023L319.62 186.196C320.496 185.436 321 184.334 321 183.173Z" stroke="#4A4A4A" stroke-width="9"/>
</svg>
