<svg width="310" height="251" viewBox="0 0 310 251" fill="none" xmlns="http://www.w3.org/2000/svg">
<rect x="5" y="30" width="148" height="48" fill="#D6D6D6"/>
<line x1="148.5" y1="78" x2="148.5" y2="30" stroke="#FDFDFD" stroke-width="9"/>
<path d="M33 6H181L153 30H5L33 6Z" fill="#FDFDFD"/>
<path d="M153 30L181 6V54L153 78V30Z" fill="#ADACAC"/>
<path d="M34.472 5.99503L176.986 5.51356C179.201 5.50608 181 7.29912 181 9.51354V52.1603C181 53.328 180.49 54.4374 179.603 55.1973L154.123 77.037C153.398 77.6584 152.475 78 151.52 78H9C6.79086 78 5 76.2091 5 74V31.8397C5 30.672 5.51025 29.5626 6.39684 28.8027L31.8824 6.95798C32.6038 6.3396 33.5218 5.99824 34.472 5.99503Z" stroke="#4A4A4A" stroke-width="10"/>
<rect x="5" y="112" width="148" height="134" fill="#D6D6D6"/>
<line x1="148.5" y1="246" x2="148.5" y2="112" stroke="#FDFDFD" stroke-width="9"/>
<path d="M33 88H181L153 112H5L33 88Z" fill="#FDFDFD"/>
<path d="M153 112L181 88V222L153 246V112Z" fill="#ADACAC"/>
<path d="M34.472 87.995L176.986 87.5136C179.201 87.5061 181 89.2991 181 91.5135V220.16C181 221.328 180.49 222.437 179.603 223.197L154.123 245.037C153.398 245.658 152.475 246 151.52 246H9C6.79086 246 5 244.209 5 242V113.84C5 112.672 5.51025 111.563 6.39684 110.803L31.8824 88.958C32.6038 88.3396 33.5218 87.9982 34.472 87.995Z" stroke="#4A4A4A" stroke-width="10"/>
<rect x="181" y="30" width="96" height="122" fill="#D6D6D6"/>
<path d="M209 6H305L277 30H181L209 6Z" fill="#FDFDFD"/>
<path d="M277 30L305 6V128L277 152V30Z" fill="#ADACAC"/>
<line x1="272.5" y1="152" x2="272.5" y2="30" stroke="#FDFDFD" stroke-width="9"/>
<path d="M210.468 5.99235L300.979 5.52094C303.196 5.50939 305 7.30361 305 9.52089V126.16C305 127.328 304.49 128.437 303.603 129.197L278.123 151.037C277.398 151.658 276.475 152 275.52 152H185C182.791 152 181 150.209 181 148V31.8397C181 30.672 181.51 29.5626 182.397 28.8027L207.886 6.95527C208.605 6.33853 209.52 5.99729 210.468 5.99235Z" stroke="#4A4A4A" stroke-width="10"/>
<rect x="181" y="186" width="96" height="60" fill="#D6D6D6"/>
<path d="M209 162H305L277 186H181L209 162Z" fill="#FDFDFD"/>
<path d="M277 186L305 162V222L277 246V186Z" fill="#ADACAC"/>
<line x1="272.5" y1="246" x2="272.5" y2="186" stroke="#FDFDFD" stroke-width="9"/>
<path d="M210.468 161.992L300.979 161.521C303.196 161.509 305 163.304 305 165.521V220.16C305 221.328 304.49 222.437 303.603 223.197L278.123 245.037C277.398 245.658 276.475 246 275.52 246H185C182.791 246 181 244.209 181 242V187.84C181 186.672 181.51 185.563 182.397 184.803L207.886 162.955C208.605 162.339 209.52 161.997 210.468 161.992Z" stroke="#4A4A4A" stroke-width="10"/>
</svg>
