<svg width="313" height="250" viewBox="0 0 313 250" fill="none" xmlns="http://www.w3.org/2000/svg">
<rect x="10" y="29" width="48" height="216" fill="#D6D6D6"/>
<path d="M38 5H86L58 29H10L38 5Z" fill="#FDFDFD"/>
<path d="M58 29L86 5V221L58 245V29Z" fill="#ADACAC"/>
<rect x="232" y="29" width="48" height="216" fill="#D6D6D6"/>
<path d="M280 29L308 5V221L280 245V29Z" fill="#ADACAC"/>
<path d="M260 5H308L280 29H232L260 5Z" fill="#FDFDFD"/>
<line x1="275.5" y1="240" x2="275.5" y2="221" stroke="#FDFDFD" stroke-width="9"/>
<path d="M280 43L275 47.0005V225L280 221V43Z" fill="#ADACAC"/>
<rect x="5" y="47" width="270" height="178" fill="#D6D6D6"/>
<path d="M10 43L5 47H275L280 43H10Z" fill="#FDFDFD"/>
<line x1="270.5" y1="225" x2="270.5" y2="47" stroke="#FDFDFD" stroke-width="9"/>
<line x1="53.5" y1="43" x2="53.5" y2="29" stroke="#FDFDFD" stroke-width="9"/>
<line x1="275.5" y1="43" x2="275.5" y2="29" stroke="#FDFDFD" stroke-width="9"/>
<line x1="53.5" y1="240" x2="53.5" y2="225" stroke="#FDFDFD" stroke-width="9"/>
<path d="M82 5H39.4797C38.5249 5 37.6015 5.34157 36.8765 5.96297L11.3968 27.8027C10.5103 28.5626 10 29.672 10 30.8397V41.0775C10 42.2926 9.44764 43.4419 8.49878 44.201L6.50122 45.799C5.55236 46.5581 5 47.7074 5 48.9225V222.5C5 223.881 6.11929 225 7.5 225C8.88071 225 10 226.119 10 227.5V241C10 243.209 11.7909 245 14 245H56.5199C57.475 245 58.3986 244.658 59.1236 244.037L80.2006 225.963C80.9257 225.342 81.8492 225 82.8044 225H228C230.209 225 232 226.791 232 229V241C232 243.209 233.791 245 236 245H278.52C279.475 245 280.398 244.658 281.123 244.037L306.603 222.197C307.49 221.437 308 220.328 308 219.16V9C308 6.79086 306.209 5 304 5H261.48C260.525 5 259.602 5.34157 258.877 5.96297L233.397 27.8027C232.51 28.5626 232 29.672 232 30.8397V39C232 41.2091 230.209 43 228 43H90C87.7909 43 86 41.2091 86 39V9C86 6.79086 84.2091 5 82 5Z" stroke="#4A4A4A" stroke-width="10"/>
</svg>
